<?xml version="1.0" encoding="utf-8"?>
<!-- Generator: Adobe Illustrator 28.2.0, SVG Export Plug-In . SVG Version: 6.00 Build 0)  -->
<svg version="1.1" id="Layer_1" xmlns="http://www.w3.org/2000/svg" xmlns:xlink="http://www.w3.org/1999/xlink" x="0px" y="0px"
	 viewBox="0 0 3800 1576" style="enable-background:new 0 0 3800 1576;" xml:space="preserve">
<style type="text/css">
	.st0{fill-rule:evenodd;clip-rule:evenodd;fill:#F8D7CD;}
	.st1{fill-rule:evenodd;clip-rule:evenodd;fill:#ED7D31;stroke:#FFFFFF;stroke-width:4.5833;stroke-miterlimit:8;}
	.st2{enable-background:new    ;}
	.st3{fill:#FFFFFF;}
	.st4{fill-rule:evenodd;clip-rule:evenodd;fill:#C48170;stroke:#FFFFFF;stroke-width:4.5833;stroke-miterlimit:8;}
	.st5{fill-rule:evenodd;clip-rule:evenodd;fill:#A5A5A5;stroke:#FFFFFF;stroke-width:4.5833;stroke-miterlimit:8;}
</style>
<g transform="translate(-435 -449)">
	<g>
		<path class="st0" d="M723,844.8h2440.5V452l785.5,785.5L3163.5,2023v-392.8H723V844.8z"/>
		<path class="st1" d="M442.5,1028.3c0-57.9,46.9-104.8,104.8-104.8h1012.3c57.9,0,104.8,46.9,104.8,104.8v419.3
			c0,57.9-46.9,104.8-104.8,104.8H547.3c-57.9,0-104.8-46.9-104.8-104.8V1028.3z"/>
		<g class="st2">
			<path class="st3" d="M521.7,1201l36.6-95.2h13.6l39,95.2h-14.4l-11.1-28.8h-39.8L535,1201H521.7z M549.1,1161.9h32.3l-9.9-26.4
				c-3-8-5.3-14.6-6.8-19.7c-1.2,6.1-2.9,12.2-5.1,18.2L549.1,1161.9z"/>
			<path class="st3" d="M617.2,1206.7l11.4,1.7c0.5,3.5,1.8,6.1,4,7.7c2.9,2.2,6.9,3.2,11.9,3.2c5.4,0,9.6-1.1,12.5-3.2
				c2.9-2.2,4.9-5.2,6-9.1c0.6-2.4,0.9-7.4,0.8-15c-5.1,6-11.5,9-19.1,9c-9.5,0-16.8-3.4-22-10.3c-5.2-6.8-7.8-15-7.8-24.6
				c0-6.6,1.2-12.7,3.6-18.2c2.4-5.6,5.8-9.9,10.4-12.9c4.5-3,9.8-4.5,15.9-4.5c8.1,0,14.8,3.3,20.1,9.9v-8.3h10.8v59.6
				c0,10.7-1.1,18.3-3.3,22.8c-2.2,4.5-5.7,8-10.4,10.6c-4.7,2.6-10.6,3.9-17.5,3.9c-8.2,0-14.9-1.9-19.9-5.6
				C619.5,1219.7,617,1214.2,617.2,1206.7z M626.9,1165.3c0,9,1.8,15.7,5.4,19.8c3.6,4.2,8.1,6.2,13.5,6.2c5.4,0,9.9-2.1,13.5-6.2
				c3.6-4.1,5.5-10.6,5.5-19.5c0-8.4-1.9-14.8-5.6-19.1c-3.7-4.3-8.3-6.4-13.5-6.4c-5.2,0-9.6,2.1-13.2,6.3
				C628.7,1150.7,626.9,1157,626.9,1165.3z"/>
			<path class="st3" d="M691.2,1206.7l11.4,1.7c0.5,3.5,1.8,6.1,4,7.7c2.9,2.2,6.9,3.2,11.9,3.2c5.4,0,9.6-1.1,12.5-3.2
				c2.9-2.2,4.9-5.2,6-9.1c0.6-2.4,0.9-7.4,0.8-15c-5.1,6-11.5,9-19.1,9c-9.5,0-16.8-3.4-22-10.3c-5.2-6.8-7.8-15-7.8-24.6
				c0-6.6,1.2-12.7,3.6-18.2c2.4-5.6,5.8-9.9,10.4-12.9c4.5-3,9.8-4.5,15.9-4.5c8.1,0,14.8,3.3,20.1,9.9v-8.3h10.8v59.6
				c0,10.7-1.1,18.3-3.3,22.8c-2.2,4.5-5.7,8-10.4,10.6s-10.6,3.9-17.5,3.9c-8.2,0-14.9-1.9-19.9-5.6
				C693.4,1219.7,691,1214.2,691.2,1206.7z M700.8,1165.3c0,9,1.8,15.7,5.4,19.8c3.6,4.2,8.1,6.2,13.5,6.2c5.4,0,9.9-2.1,13.5-6.2
				c3.6-4.1,5.5-10.6,5.5-19.5c0-8.4-1.9-14.8-5.6-19.1c-3.7-4.3-8.3-6.4-13.5-6.4c-5.2,0-9.6,2.1-13.2,6.3
				C702.6,1150.7,700.8,1157,700.8,1165.3z"/>
			<path class="st3" d="M767.3,1119.2v-13.4H779v13.4H767.3z M767.3,1201v-69H779v69H767.3z"/>
			<path class="st3" d="M842,1201v-10.1c-5.4,7.8-12.7,11.7-21.9,11.7c-4.1,0-7.9-0.8-11.4-2.3c-3.5-1.6-6.1-3.5-7.9-5.9
				c-1.7-2.4-2.9-5.2-3.6-8.7c-0.5-2.3-0.7-5.9-0.7-10.9V1132h11.7v38.3c0,6.1,0.2,10.2,0.7,12.3c0.7,3.1,2.3,5.5,4.7,7.2
				c2.4,1.8,5.3,2.6,8.8,2.6s6.8-0.9,9.9-2.7c3.1-1.8,5.2-4.2,6.5-7.3c1.3-3.1,1.9-7.6,1.9-13.5v-37h11.7v69H842z"/>
			<path class="st3" d="M870.8,1201v-69h10.5v9.8c5.1-7.6,12.4-11.4,22-11.4c4.2,0,8,0.7,11.5,2.2c3.5,1.5,6.1,3.5,7.8,5.9
				c1.7,2.4,2.9,5.3,3.6,8.6c0.4,2.2,0.6,6,0.6,11.4v42.4h-11.7v-42c0-4.8-0.5-8.3-1.4-10.7c-0.9-2.4-2.5-4.2-4.8-5.7
				c-2.3-1.4-5-2.1-8.2-2.1c-5,0-9.3,1.6-12.9,4.7c-3.6,3.2-5.4,9.2-5.4,18v37.7H870.8z"/>
			<path class="st3" d="M942.6,1206.7l11.4,1.7c0.5,3.5,1.8,6.1,4,7.7c2.9,2.2,6.9,3.2,11.9,3.2c5.4,0,9.6-1.1,12.5-3.2
				c2.9-2.2,4.9-5.2,6-9.1c0.6-2.4,0.9-7.4,0.8-15c-5.1,6-11.5,9-19.1,9c-9.5,0-16.8-3.4-22-10.3c-5.2-6.8-7.8-15-7.8-24.6
				c0-6.6,1.2-12.7,3.6-18.2c2.4-5.6,5.8-9.9,10.4-12.9c4.5-3,9.8-4.5,15.9-4.5c8.1,0,14.8,3.3,20.1,9.9v-8.3h10.8v59.6
				c0,10.7-1.1,18.3-3.3,22.8c-2.2,4.5-5.7,8-10.4,10.6c-4.7,2.6-10.6,3.9-17.5,3.9c-8.2,0-14.9-1.9-19.9-5.6
				C944.9,1219.7,942.4,1214.2,942.6,1206.7z M952.3,1165.3c0,9,1.8,15.7,5.4,19.8c3.6,4.2,8.1,6.2,13.5,6.2c5.4,0,9.9-2.1,13.5-6.2
				c3.6-4.1,5.5-10.6,5.5-19.5c0-8.4-1.9-14.8-5.6-19.1c-3.7-4.3-8.3-6.4-13.5-6.4c-5.2,0-9.6,2.1-13.2,6.3
				C954.1,1150.7,952.3,1157,952.3,1165.3z"/>
			<path class="st3" d="M1018.8,1119.2v-13.4h11.7v13.4H1018.8z M1018.8,1201v-69h11.7v69H1018.8z"/>
			<path class="st3" d="M1085.3,1119.2v-13.4h11.7v13.4H1085.3z M1085.3,1201v-69h11.7v69H1085.3z"/>
			<path class="st3" d="M1114.5,1201v-95.2h11.7v95.2H1114.5z"/>
			<path class="st3" d="M1181.3,1201v-69h10.5v9.7c2.2-3.4,5-6.1,8.6-8.2c3.6-2.1,7.7-3.1,12.3-3.1c5.1,0,9.3,1.1,12.6,3.2
				c3.3,2.1,5.6,5.1,6.9,8.9c5.5-8.1,12.6-12.1,21.3-12.1c6.8,0,12.1,1.9,15.8,5.7c3.7,3.8,5.5,9.6,5.5,17.5v47.3h-11.6v-43.4
				c0-4.7-0.4-8-1.1-10.1c-0.8-2.1-2.1-3.7-4.1-5c-2-1.3-4.3-1.9-7-1.9c-4.8,0-8.9,1.6-12.1,4.8c-3.2,3.2-4.8,8.4-4.8,15.5v40.1
				h-11.7v-44.8c0-5.2-1-9.1-2.9-11.7c-1.9-2.6-5-3.9-9.4-3.9c-3.3,0-6.3,0.9-9.1,2.6c-2.8,1.7-4.8,4.3-6.1,7.6
				c-1.3,3.3-1.9,8.1-1.9,14.4v35.8H1181.3z"/>
			<path class="st3" d="M1287.7,1166.5c0-12.8,3.5-22.2,10.7-28.4c5.9-5.1,13.2-7.7,21.7-7.7c9.5,0,17.2,3.1,23.2,9.3
				c6,6.2,9,14.8,9,25.7c0,8.9-1.3,15.9-4,20.9c-2.7,5.1-6.5,9-11.6,11.9c-5.1,2.8-10.6,4.2-16.7,4.2c-9.7,0-17.5-3.1-23.4-9.3
				C1290.7,1187.1,1287.7,1178.2,1287.7,1166.5z M1299.7,1166.5c0,8.8,1.9,15.4,5.8,19.8c3.9,4.4,8.7,6.6,14.5,6.6
				c5.8,0,10.6-2.2,14.5-6.6s5.8-11.1,5.8-20.2c0-8.5-1.9-15-5.8-19.4c-3.9-4.4-8.7-6.6-14.4-6.6c-5.8,0-10.7,2.2-14.5,6.6
				C1301.6,1151.1,1299.7,1157.7,1299.7,1166.5z"/>
			<path class="st3" d="M1410.8,1201v-8.7c-4.4,6.8-10.8,10.3-19.3,10.3c-5.5,0-10.6-1.5-15.2-4.5c-4.6-3-8.2-7.3-10.7-12.7
				c-2.5-5.4-3.8-11.7-3.8-18.7c0-6.9,1.1-13.1,3.4-18.7c2.3-5.6,5.7-9.9,10.3-12.9c4.6-3,9.7-4.5,15.4-4.5c4.2,0,7.9,0.9,11.1,2.6
				c3.2,1.8,5.9,4,7.9,6.9v-34.2h11.6v95.2H1410.8z M1373.8,1166.6c0,8.8,1.9,15.4,5.6,19.8s8.1,6.6,13.2,6.6c5.1,0,9.4-2.1,13-6.3
				c3.6-4.2,5.4-10.6,5.4-19.1c0-9.4-1.8-16.4-5.5-20.8s-8.1-6.6-13.4-6.6c-5.2,0-9.5,2.1-13,6.4
				C1375.6,1150.8,1373.8,1157.4,1373.8,1166.6z"/>
			<path class="st3" d="M1485.2,1201v-10.1c-5.4,7.8-12.7,11.7-21.9,11.7c-4.1,0-7.9-0.8-11.4-2.3c-3.5-1.6-6.1-3.5-7.9-5.9
				c-1.7-2.4-2.9-5.2-3.6-8.7c-0.5-2.3-0.7-5.9-0.7-10.9V1132h11.7v38.3c0,6.1,0.2,10.2,0.7,12.3c0.7,3.1,2.3,5.5,4.7,7.2
				c2.4,1.8,5.3,2.6,8.8,2.6s6.8-0.9,9.9-2.7c3.1-1.8,5.2-4.2,6.5-7.3c1.3-3.1,1.9-7.6,1.9-13.5v-37h11.7v69H1485.2z"/>
			<path class="st3" d="M1513.7,1201v-95.2h11.7v95.2H1513.7z"/>
			<path class="st3" d="M1539.2,1166.5c0-12.8,3.5-22.2,10.7-28.4c5.9-5.1,13.2-7.7,21.7-7.7c9.5,0,17.2,3.1,23.2,9.3
				c6,6.2,9,14.8,9,25.7c0,8.9-1.3,15.9-4,20.9c-2.7,5.1-6.5,9-11.6,11.9c-5.1,2.8-10.6,4.2-16.7,4.2c-9.7,0-17.5-3.1-23.4-9.3
				C1542.1,1187.1,1539.2,1178.2,1539.2,1166.5z M1551.2,1166.5c0,8.8,1.9,15.4,5.8,19.8c3.9,4.4,8.7,6.6,14.5,6.6
				c5.8,0,10.6-2.2,14.5-6.6s5.8-11.1,5.8-20.2c0-8.5-1.9-15-5.8-19.4c-3.9-4.4-8.7-6.6-14.4-6.6c-5.8,0-10.7,2.2-14.5,6.6
				C1553.1,1151.1,1551.2,1157.7,1551.2,1166.5z"/>
			<path class="st3" d="M642.2,1352.1c-4.3,3.7-8.5,6.3-12.5,7.8c-4,1.5-8.3,2.3-12.9,2.3c-7.6,0-13.4-1.9-17.5-5.6
				c-4.1-3.7-6.1-8.4-6.1-14.2c0-3.4,0.8-6.5,2.3-9.3c1.5-2.8,3.5-5,6-6.7c2.5-1.7,5.3-3,8.4-3.8c2.3-0.6,5.8-1.2,10.4-1.8
				c9.4-1.1,16.4-2.5,20.8-4c0-1.6,0.1-2.6,0.1-3.1c0-4.8-1.1-8.1-3.3-10.1c-3-2.6-7.4-4-13.3-4c-5.5,0-9.6,1-12.2,2.9
				c-2.6,1.9-4.6,5.3-5.8,10.2l-11.4-1.6c1-4.9,2.7-8.8,5.1-11.9c2.4-3,5.8-5.3,10.3-6.9c4.5-1.6,9.7-2.4,15.7-2.4
				c5.9,0,10.7,0.7,14.4,2.1c3.7,1.4,6.4,3.1,8.1,5.2c1.7,2.1,2.9,4.8,3.6,8c0.4,2,0.6,5.6,0.6,10.8v15.6c0,10.9,0.2,17.7,0.7,20.6
				c0.5,2.9,1.5,5.6,3,8.3h-12.2C643.3,1358.2,642.5,1355.3,642.2,1352.1z M641.2,1326c-4.2,1.7-10.6,3.2-19.1,4.4
				c-4.8,0.7-8.2,1.5-10.2,2.3c-2,0.9-3.5,2.1-4.6,3.8c-1.1,1.7-1.6,3.5-1.6,5.6c0,3.1,1.2,5.7,3.5,7.8c2.4,2.1,5.8,3.1,10.4,3.1
				c4.5,0,8.5-1,12-3c3.5-2,6.1-4.7,7.7-8.1c1.3-2.6,1.9-6.5,1.9-11.7V1326z"/>
			<path class="st3" d="M670.9,1360.6v-95.2h11.7v95.2H670.9z"/>
			<path class="st3" d="M700.4,1360.6v-95.2h11.7v95.2H700.4z"/>
			<path class="st3" d="M775.2,1352.1c-4.3,3.7-8.5,6.3-12.5,7.8c-4,1.5-8.3,2.3-12.9,2.3c-7.6,0-13.4-1.9-17.5-5.6
				c-4.1-3.7-6.1-8.4-6.1-14.2c0-3.4,0.8-6.5,2.3-9.3c1.5-2.8,3.5-5,6-6.7s5.3-3,8.4-3.8c2.3-0.6,5.8-1.2,10.4-1.8
				c9.4-1.1,16.4-2.5,20.8-4c0-1.6,0.1-2.6,0.1-3.1c0-4.8-1.1-8.1-3.3-10.1c-3-2.6-7.4-4-13.3-4c-5.5,0-9.6,1-12.2,2.9
				c-2.6,1.9-4.6,5.3-5.8,10.2l-11.4-1.6c1-4.9,2.7-8.8,5.1-11.9c2.4-3,5.8-5.3,10.3-6.9c4.5-1.6,9.7-2.4,15.7-2.4
				c5.9,0,10.7,0.7,14.4,2.1c3.7,1.4,6.4,3.1,8.1,5.2c1.7,2.1,2.9,4.8,3.6,8c0.4,2,0.6,5.6,0.6,10.8v15.6c0,10.9,0.2,17.7,0.7,20.6
				c0.5,2.9,1.5,5.6,3,8.3h-12.2C776.3,1358.2,775.6,1355.3,775.2,1352.1z M774.2,1326c-4.2,1.7-10.6,3.2-19.1,4.4
				c-4.8,0.7-8.2,1.5-10.2,2.3c-2,0.9-3.5,2.1-4.6,3.8c-1.1,1.7-1.6,3.5-1.6,5.6c0,3.1,1.2,5.7,3.5,7.8c2.4,2.1,5.8,3.1,10.4,3.1
				c4.5,0,8.5-1,12-3c3.5-2,6.1-4.7,7.7-8.1c1.3-2.6,1.9-6.5,1.9-11.7V1326z"/>
			<path class="st3" d="M841.1,1387v-95.4h10.7v9c2.5-3.5,5.3-6.1,8.5-7.9c3.2-1.8,7-2.6,11.5-2.6c5.9,0,11.1,1.5,15.6,4.5
				c4.5,3,7.9,7.3,10.2,12.8c2.3,5.5,3.4,11.6,3.4,18.2c0,7.1-1.3,13.4-3.8,19.1c-2.5,5.7-6.2,10-11,13c-4.8,3-9.9,4.5-15.2,4.5
				c-3.9,0-7.4-0.8-10.5-2.5c-3.1-1.6-5.6-3.7-7.6-6.2v33.6H841.1z M851.7,1326.5c0,8.9,1.8,15.4,5.4,19.7c3.6,4.2,7.9,6.4,13.1,6.4
				c5.2,0,9.6-2.2,13.3-6.6c3.7-4.4,5.6-11.2,5.6-20.4c0-8.8-1.8-15.4-5.4-19.7c-3.6-4.4-7.9-6.6-13-6.6c-5,0-9.4,2.3-13.2,7
				C853.6,1310.9,851.7,1317.6,851.7,1326.5z"/>
			<path class="st3" d="M960.1,1352.1c-4.3,3.7-8.5,6.3-12.5,7.8c-4,1.5-8.3,2.3-12.9,2.3c-7.6,0-13.4-1.9-17.5-5.6
				c-4.1-3.7-6.1-8.4-6.1-14.2c0-3.4,0.8-6.5,2.3-9.3c1.5-2.8,3.5-5,6-6.7c2.5-1.7,5.3-3,8.4-3.8c2.3-0.6,5.8-1.2,10.4-1.8
				c9.4-1.1,16.4-2.5,20.8-4c0-1.6,0.1-2.6,0.1-3.1c0-4.8-1.1-8.1-3.3-10.1c-3-2.6-7.4-4-13.3-4c-5.5,0-9.6,1-12.2,2.9
				c-2.6,1.9-4.6,5.3-5.8,10.2l-11.4-1.6c1-4.9,2.7-8.8,5.1-11.9c2.4-3,5.8-5.3,10.3-6.9c4.5-1.6,9.7-2.4,15.7-2.4
				c5.9,0,10.7,0.7,14.4,2.1c3.7,1.4,6.4,3.1,8.1,5.2c1.7,2.1,2.9,4.8,3.6,8c0.4,2,0.6,5.6,0.6,10.8v15.6c0,10.9,0.2,17.7,0.7,20.6
				c0.5,2.9,1.5,5.6,3,8.3h-12.2C961.2,1358.2,960.5,1355.3,960.1,1352.1z M959.1,1326c-4.2,1.7-10.6,3.2-19.1,4.4
				c-4.8,0.7-8.2,1.5-10.2,2.3c-2,0.9-3.5,2.1-4.6,3.8c-1.1,1.7-1.6,3.5-1.6,5.6c0,3.1,1.2,5.7,3.5,7.8c2.4,2.1,5.8,3.1,10.4,3.1
				c4.5,0,8.5-1,12-3c3.5-2,6.1-4.7,7.7-8.1c1.3-2.6,1.9-6.5,1.9-11.7V1326z"/>
			<path class="st3" d="M986.9,1366.3l11.4,1.7c0.5,3.5,1.8,6.1,4,7.7c2.9,2.2,6.9,3.2,11.9,3.2c5.4,0,9.6-1.1,12.5-3.2
				c2.9-2.2,4.9-5.2,6-9.1c0.6-2.4,0.9-7.4,0.8-15c-5.1,6-11.5,9-19.1,9c-9.5,0-16.8-3.4-22-10.3c-5.2-6.8-7.8-15-7.8-24.6
				c0-6.6,1.2-12.7,3.6-18.2c2.4-5.6,5.8-9.9,10.4-12.9c4.5-3,9.8-4.5,15.9-4.5c8.1,0,14.8,3.3,20.1,9.9v-8.3h10.8v59.6
				c0,10.7-1.1,18.3-3.3,22.8c-2.2,4.5-5.7,8-10.4,10.6c-4.7,2.6-10.6,3.9-17.5,3.9c-8.2,0-14.9-1.9-19.9-5.6
				C989.2,1379.3,986.8,1373.8,986.9,1366.3z M996.6,1324.9c0,9,1.8,15.7,5.4,19.8c3.6,4.2,8.1,6.2,13.5,6.2c5.4,0,9.9-2.1,13.5-6.2
				c3.6-4.1,5.5-10.6,5.5-19.5c0-8.4-1.9-14.8-5.6-19.1c-3.7-4.3-8.3-6.4-13.5-6.4c-5.2,0-9.6,2.1-13.2,6.3
				C998.4,1310.3,996.6,1316.6,996.6,1324.9z"/>
			<path class="st3" d="M1063.1,1278.8v-13.4h11.7v13.4H1063.1z M1063.1,1360.6v-69h11.7v69H1063.1z"/>
			<path class="st3" d="M1092.6,1360.6v-69h10.5v9.8c5.1-7.6,12.4-11.4,22-11.4c4.2,0,8,0.7,11.5,2.2c3.5,1.5,6.1,3.5,7.8,5.9
				c1.7,2.4,2.9,5.3,3.6,8.6c0.4,2.2,0.6,6,0.6,11.4v42.4h-11.7v-42c0-4.8-0.5-8.3-1.4-10.7c-0.9-2.4-2.5-4.2-4.8-5.7
				c-2.3-1.4-5-2.1-8.2-2.1c-5,0-9.3,1.6-12.9,4.7c-3.6,3.2-5.4,9.2-5.4,18v37.7H1092.6z"/>
			<path class="st3" d="M1211.6,1352.1c-4.3,3.7-8.5,6.3-12.5,7.8c-4,1.5-8.3,2.3-12.9,2.3c-7.6,0-13.4-1.9-17.5-5.6
				c-4.1-3.7-6.1-8.4-6.1-14.2c0-3.4,0.8-6.5,2.3-9.3c1.5-2.8,3.5-5,6-6.7c2.5-1.7,5.3-3,8.4-3.8c2.3-0.6,5.8-1.2,10.4-1.8
				c9.4-1.1,16.4-2.5,20.8-4c0-1.6,0.1-2.6,0.1-3.1c0-4.8-1.1-8.1-3.3-10.1c-3-2.6-7.4-4-13.3-4c-5.5,0-9.6,1-12.2,2.9
				c-2.6,1.9-4.6,5.3-5.8,10.2l-11.4-1.6c1-4.9,2.7-8.8,5.1-11.9c2.4-3,5.8-5.3,10.3-6.9c4.5-1.6,9.7-2.4,15.7-2.4
				c5.9,0,10.7,0.7,14.4,2.1c3.7,1.4,6.4,3.1,8.1,5.2c1.7,2.1,2.9,4.8,3.6,8c0.4,2,0.6,5.6,0.6,10.8v15.6c0,10.9,0.2,17.7,0.7,20.6
				c0.5,2.9,1.5,5.6,3,8.3h-12.2C1212.7,1358.2,1211.9,1355.3,1211.6,1352.1z M1210.6,1326c-4.2,1.7-10.6,3.2-19.1,4.4
				c-4.8,0.7-8.2,1.5-10.2,2.3c-2,0.9-3.5,2.1-4.6,3.8c-1.1,1.7-1.6,3.5-1.6,5.6c0,3.1,1.2,5.7,3.5,7.8c2.4,2.1,5.8,3.1,10.4,3.1
				c4.5,0,8.5-1,12-3c3.5-2,6.1-4.7,7.7-8.1c1.3-2.6,1.9-6.5,1.9-11.7V1326z"/>
			<path class="st3" d="M1279.2,1360.6v-95.2h68.8v11.2h-56.2v29.2h52.7v11.2h-52.7v32.4h58.4v11.2H1279.2z"/>
			<path class="st3" d="M1367.7,1360.6v-95.2h32.8c7.4,0,13.1,0.5,16.9,1.4c5.5,1.3,10.1,3.5,14,6.8c5,4.2,8.8,9.7,11.3,16.3
				c2.5,6.6,3.7,14.1,3.7,22.6c0,7.2-0.8,13.6-2.5,19.2c-1.7,5.6-3.9,10.2-6.5,13.9c-2.6,3.7-5.5,6.5-8.7,8.6
				c-3.1,2.1-6.9,3.7-11.4,4.8c-4.4,1.1-9.5,1.6-15.3,1.6H1367.7z M1380.3,1349.4h20.3c6.3,0,11.2-0.6,14.8-1.8
				c3.6-1.2,6.4-2.8,8.5-4.9c3-3,5.3-7,7-12c1.7-5,2.5-11.2,2.5-18.3c0-10-1.6-17.6-4.9-23c-3.3-5.3-7.2-8.9-11.9-10.7
				c-3.4-1.3-8.8-1.9-16.3-1.9h-20V1349.4z"/>
			<path class="st3" d="M1459.4,1330l11.9-1c0.6,4.8,1.9,8.7,3.9,11.7c2.1,3.1,5.2,5.5,9.6,7.4c4.3,1.9,9.2,2.8,14.6,2.8
				c4.8,0,9-0.7,12.7-2.1c3.7-1.4,6.4-3.4,8.2-5.9c1.8-2.5,2.7-5.2,2.7-8.2c0-3-0.9-5.6-2.6-7.8c-1.7-2.2-4.6-4.1-8.6-5.6
				c-2.6-1-8.2-2.5-16.9-4.6c-8.7-2.1-14.9-4.1-18.4-5.9c-4.5-2.4-7.9-5.3-10.2-8.9c-2.2-3.5-3.3-7.5-3.3-11.9
				c0-4.8,1.4-9.3,4.1-13.5c2.7-4.2,6.7-7.3,11.9-9.5c5.2-2.2,11.1-3.2,17.5-3.2c7.1,0,13.3,1.1,18.7,3.4c5.4,2.3,9.5,5.6,12.4,10
				c2.9,4.4,4.5,9.4,4.7,15l-12.1,0.9c-0.6-6-2.8-10.6-6.6-13.6c-3.7-3.1-9.3-4.6-16.6-4.6c-7.6,0-13.2,1.4-16.7,4.2
				c-3.5,2.8-5.2,6.2-5.2,10.1c0,3.4,1.2,6.2,3.7,8.4c2.4,2.2,8.8,4.5,19,6.8c10.2,2.3,17.3,4.3,21.1,6.1c5.5,2.6,9.6,5.8,12.3,9.7
				c2.6,3.9,4,8.4,4,13.5c0,5.1-1.5,9.8-4.4,14.3c-2.9,4.5-7.1,8-12.5,10.5c-5.4,2.5-11.5,3.7-18.3,3.7c-8.6,0-15.8-1.3-21.7-3.8
				c-5.8-2.5-10.4-6.3-13.7-11.3C1461.4,1342.1,1459.6,1336.4,1459.4,1330z"/>
		</g>
		<path class="st4" d="M1725.5,1028.3c0-57.9,46.9-104.8,104.8-104.8h1012.3c57.9,0,104.8,46.9,104.8,104.8v419.3
			c0,57.9-46.9,104.8-104.8,104.8H1830.3c-57.9,0-104.8-46.9-104.8-104.8V1028.3z"/>
		<g class="st2">
			<path class="st3" d="M1955.8,1111.6l12.1,3.1c-2.5,10-7.1,17.6-13.7,22.8c-6.6,5.2-14.7,7.8-24.2,7.8c-9.9,0-17.9-2-24.1-6
				c-6.2-4-10.9-9.8-14.1-17.5c-3.2-7.6-4.8-15.8-4.8-24.6c0-9.5,1.8-17.9,5.5-25c3.6-7.1,8.8-12.5,15.6-16.2
				c6.7-3.7,14.1-5.5,22.2-5.5c9.2,0,16.9,2.3,23.1,7c6.2,4.7,10.6,11.2,13.1,19.7l-11.9,2.8c-2.1-6.7-5.2-11.5-9.2-14.6
				c-4-3-9.1-4.6-15.2-4.6c-7,0-12.9,1.7-17.7,5.1c-4.7,3.4-8.1,7.9-10,13.6c-1.9,5.7-2.9,11.6-2.9,17.6c0,7.8,1.1,14.6,3.4,20.4
				c2.3,5.8,5.8,10.2,10.6,13c4.8,2.9,10,4.3,15.6,4.3c6.8,0,12.5-2,17.2-5.9C1951,1125.1,1954.2,1119.3,1955.8,1111.6z"/>
			<path class="st3" d="M1981.3,1143.7v-66.4h10.1v10.1c2.6-4.7,5-7.8,7.2-9.3s4.6-2.2,7.2-2.2c3.8,0,7.6,1.2,11.6,3.6l-3.9,10.4
				c-2.8-1.6-5.5-2.4-8.2-2.4c-2.5,0-4.7,0.7-6.6,2.2c-2,1.5-3.4,3.5-4.2,6.2c-1.2,4-1.9,8.4-1.9,13.1v34.8H1981.3z"/>
			<path class="st3" d="M2069.5,1122.3l11.6,1.4c-1.8,6.8-5.2,12.1-10.2,15.8c-5,3.8-11.3,5.6-19,5.6c-9.7,0-17.4-3-23.1-9
				c-5.7-6-8.5-14.4-8.5-25.2c0-11.2,2.9-19.8,8.6-26c5.8-6.2,13.2-9.2,22.4-9.2c8.9,0,16.1,3,21.8,9.1c5.6,6,8.4,14.5,8.4,25.5
				c0,0.7,0,1.7-0.1,3h-49.5c0.4,7.3,2.5,12.9,6.2,16.8c3.7,3.9,8.3,5.8,13.9,5.8c4.1,0,7.6-1.1,10.6-3.2
				C2065.5,1130.5,2067.8,1127.1,2069.5,1122.3z M2032.6,1104.1h37.1c-0.5-5.6-1.9-9.8-4.2-12.6c-3.6-4.3-8.2-6.5-13.9-6.5
				c-5.2,0-9.5,1.7-13,5.2C2034.9,1093.7,2032.9,1098.4,2032.6,1104.1z"/>
			<path class="st3" d="M2138.6,1135.5c-4.2,3.5-8.2,6-12,7.5c-3.9,1.5-8,2.2-12.4,2.2c-7.3,0-12.9-1.8-16.8-5.3
				c-3.9-3.6-5.9-8.1-5.9-13.7c0-3.2,0.7-6.2,2.2-8.9c1.5-2.7,3.4-4.8,5.8-6.5c2.4-1.6,5.1-2.9,8.1-3.7c2.2-0.6,5.5-1.1,10-1.7
				c9.1-1.1,15.8-2.4,20.1-3.9c0-1.5,0.1-2.5,0.1-2.9c0-4.6-1.1-7.8-3.2-9.7c-2.9-2.5-7.1-3.8-12.8-3.8c-5.3,0-9.2,0.9-11.7,2.8
				c-2.5,1.9-4.4,5.1-5.6,9.8l-11-1.5c1-4.7,2.6-8.5,4.9-11.4c2.3-2.9,5.6-5.1,9.9-6.7c4.3-1.6,9.4-2.3,15.1-2.3
				c5.7,0,10.3,0.7,13.8,2c3.5,1.3,6.1,3,7.8,5c1.7,2,2.8,4.6,3.5,7.7c0.4,1.9,0.6,5.4,0.6,10.4v15c0,10.5,0.2,17.1,0.7,19.8
				c0.5,2.8,1.4,5.4,2.8,8h-11.8C2139.7,1141.4,2138.9,1138.6,2138.6,1135.5z M2137.6,1110.4c-4.1,1.7-10.2,3.1-18.4,4.2
				c-4.6,0.7-7.9,1.4-9.8,2.2c-1.9,0.8-3.4,2.1-4.4,3.7c-1,1.6-1.6,3.4-1.6,5.3c0,3,1.1,5.5,3.4,7.5c2.3,2,5.6,3,10,3
				c4.3,0,8.2-0.9,11.6-2.8c3.4-1.9,5.9-4.5,7.4-7.8c1.2-2.5,1.8-6.3,1.8-11.2V1110.4z"/>
			<path class="st3" d="M2245.5,1143.7v-9.8c-5.2,7.5-12.2,11.2-21.1,11.2c-3.9,0-7.6-0.8-11-2.2c-3.4-1.5-5.9-3.4-7.6-5.7
				c-1.6-2.3-2.8-5.1-3.5-8.3c-0.5-2.2-0.7-5.7-0.7-10.5v-41.1h11.2v36.8c0,5.9,0.2,9.8,0.7,11.9c0.7,3,2.2,5.3,4.5,7
				c2.3,1.7,5.1,2.5,8.5,2.5s6.5-0.9,9.5-2.6c3-1.7,5.1-4.1,6.3-7.1c1.2-3,1.8-7.3,1.8-13v-35.6h11.2v66.4H2245.5z"/>
			<path class="st3" d="M2273.2,1143.7v-66.4h10.1v9.4c4.9-7.3,11.9-10.9,21.1-10.9c4,0,7.7,0.7,11,2.2c3.4,1.4,5.9,3.3,7.5,5.7
				c1.7,2.3,2.8,5.1,3.5,8.3c0.4,2.1,0.6,5.7,0.6,10.9v40.8h-11.2v-40.4c0-4.6-0.4-8-1.3-10.3c-0.9-2.3-2.4-4.1-4.7-5.4
				c-2.2-1.4-4.8-2-7.8-2c-4.8,0-8.9,1.5-12.4,4.6c-3.5,3-5.2,8.8-5.2,17.3v36.2H2273.2z"/>
			<path class="st3" d="M2379.9,1143.7v-66.4h10.1v9.3c2.1-3.2,4.9-5.9,8.3-7.8c3.5-2,7.4-3,11.8-3c4.9,0,8.9,1,12.1,3.1
				c3.1,2,5.4,4.9,6.7,8.6c5.2-7.8,12.1-11.6,20.5-11.6c6.6,0,11.6,1.8,15.2,5.5c3.5,3.6,5.3,9.3,5.3,16.8v45.6h-11.2v-41.8
				c0-4.5-0.4-7.7-1.1-9.7c-0.7-2-2.1-3.6-4-4.8c-1.9-1.2-4.2-1.8-6.8-1.8c-4.7,0-8.5,1.6-11.6,4.7c-3.1,3.1-4.6,8.1-4.6,14.9v38.6
				h-11.2v-43.1c0-5-0.9-8.8-2.8-11.2s-4.8-3.8-9-3.8c-3.2,0-6.1,0.8-8.8,2.5c-2.7,1.7-4.6,4.1-5.8,7.3c-1.2,3.2-1.8,7.8-1.8,13.9
				v34.4H2379.9z"/>
			<path class="st3" d="M2482.4,1110.5c0-12.3,3.4-21.4,10.2-27.3c5.7-4.9,12.7-7.4,20.9-7.4c9.1,0,16.6,3,22.4,9
				c5.8,6,8.7,14.2,8.7,24.8c0,8.5-1.3,15.3-3.8,20.2c-2.6,4.9-6.3,8.7-11.2,11.4s-10.2,4.1-16,4.1c-9.3,0-16.8-3-22.5-8.9
				C2485.2,1130.3,2482.4,1121.7,2482.4,1110.5z M2493.9,1110.5c0,8.5,1.9,14.9,5.6,19.1c3.7,4.2,8.4,6.3,14,6.3
				c5.6,0,10.2-2.1,13.9-6.4s5.6-10.7,5.6-19.4c0-8.2-1.9-14.4-5.6-18.7c-3.7-4.2-8.4-6.3-13.9-6.3c-5.6,0-10.3,2.1-14,6.3
				C2495.8,1095.7,2493.9,1102,2493.9,1110.5z"/>
			<path class="st3" d="M2600.8,1143.7v-8.4c-4.2,6.6-10.4,9.9-18.6,9.9c-5.3,0-10.2-1.5-14.6-4.4s-7.9-7-10.3-12.2
				c-2.4-5.2-3.7-11.2-3.7-18c0-6.6,1.1-12.6,3.3-18c2.2-5.4,5.5-9.5,9.9-12.4s9.4-4.3,14.8-4.3c4,0,7.6,0.8,10.7,2.5
				s5.7,3.9,7.6,6.6v-32.9h11.2v91.6H2600.8z M2565.3,1110.6c0,8.5,1.8,14.9,5.4,19.1c3.6,4.2,7.8,6.3,12.7,6.3c4.9,0,9.1-2,12.5-6
				c3.4-4,5.2-10.2,5.2-18.4c0-9.1-1.8-15.8-5.2-20s-7.8-6.4-12.9-6.4c-5,0-9.2,2-12.5,6.1
				C2566.9,1095.4,2565.3,1101.8,2565.3,1110.6z"/>
			<path class="st3" d="M2672.4,1143.7v-9.8c-5.2,7.5-12.2,11.2-21.1,11.2c-3.9,0-7.6-0.8-11-2.2s-5.9-3.4-7.6-5.7
				c-1.6-2.3-2.8-5.1-3.5-8.3c-0.5-2.2-0.7-5.7-0.7-10.5v-41.1h11.2v36.8c0,5.9,0.2,9.8,0.7,11.9c0.7,3,2.2,5.3,4.5,7
				s5.1,2.5,8.5,2.5s6.5-0.9,9.5-2.6c3-1.7,5.1-4.1,6.3-7.1c1.2-3,1.8-7.3,1.8-13v-35.6h11.2v66.4H2672.4z"/>
			<path class="st3" d="M2699.9,1143.7v-91.6h11.2v91.6H2699.9z"/>
			<path class="st3" d="M2724.4,1110.5c0-12.3,3.4-21.4,10.2-27.3c5.7-4.9,12.7-7.4,20.9-7.4c9.1,0,16.6,3,22.4,9
				c5.8,6,8.7,14.2,8.7,24.8c0,8.5-1.3,15.3-3.8,20.2c-2.6,4.9-6.3,8.7-11.2,11.4s-10.2,4.1-16,4.1c-9.3,0-16.8-3-22.5-8.9
				C2727.2,1130.3,2724.4,1121.7,2724.4,1110.5z M2735.9,1110.5c0,8.5,1.9,14.9,5.6,19.1c3.7,4.2,8.4,6.3,14,6.3
				c5.6,0,10.2-2.1,13.9-6.4s5.6-10.7,5.6-19.4c0-8.2-1.9-14.4-5.6-18.7c-3.7-4.2-8.4-6.3-13.9-6.3c-5.6,0-10.3,2.1-14,6.3
				C2737.8,1095.7,2735.9,1102,2735.9,1110.5z"/>
			<path class="st3" d="M1843,1218.6v-12.9h11.2v12.9H1843z M1843,1297.3v-66.4h11.2v66.4H1843z"/>
			<path class="st3" d="M1871.4,1297.3v-66.4h10.1v9.4c4.9-7.3,11.9-10.9,21.1-10.9c4,0,7.7,0.7,11,2.2c3.4,1.4,5.9,3.3,7.5,5.7
				c1.7,2.3,2.8,5.1,3.5,8.3c0.4,2.1,0.6,5.7,0.6,10.9v40.8H1914v-40.4c0-4.6-0.4-8-1.3-10.3c-0.9-2.3-2.4-4.1-4.7-5.4
				c-2.2-1.4-4.8-2-7.8-2c-4.8,0-8.9,1.5-12.4,4.6c-3.5,3-5.2,8.8-5.2,17.3v36.2H1871.4z"/>
			<path class="st3" d="M1979.2,1297.3v-91.6h18.2l21.7,64.9c2,6,3.5,10.6,4.4,13.6c1-3.3,2.7-8.2,4.9-14.7l21.9-63.8h16.3v91.6
				h-11.7v-76.7l-26.6,76.7h-10.9l-26.5-78v78H1979.2z"/>
			<path class="st3" d="M2084.8,1218.6v-12.9h11.2v12.9H2084.8z M2084.8,1297.3v-66.4h11.2v66.4H2084.8z"/>
			<path class="st3" d="M2156.5,1273l11.1,1.4c-1.2,7.6-4.3,13.6-9.3,17.9c-5,4.3-11.1,6.5-18.3,6.5c-9.1,0-16.4-3-21.9-8.9
				c-5.5-5.9-8.3-14.4-8.3-25.5c0-7.2,1.2-13.4,3.6-18.8s6-9.4,10.8-12.1c4.9-2.7,10.1-4,15.8-4c7.2,0,13.1,1.8,17.7,5.5
				c4.6,3.6,7.5,8.8,8.8,15.5l-10.9,1.7c-1-4.5-2.9-7.8-5.5-10.1c-2.6-2.2-5.8-3.4-9.6-3.4c-5.7,0-10.3,2-13.8,6.1
				c-3.5,4.1-5.3,10.5-5.3,19.3c0,8.9,1.7,15.4,5.1,19.4c3.4,4,7.9,6.1,13.4,6.1c4.4,0,8.1-1.4,11.1-4.1
				C2153.8,1282.8,2155.7,1278.6,2156.5,1273z"/>
			<path class="st3" d="M2177,1297.3v-66.4h10.1v10.1c2.6-4.7,5-7.8,7.2-9.3s4.6-2.2,7.2-2.2c3.8,0,7.6,1.2,11.6,3.6l-3.9,10.4
				c-2.8-1.6-5.5-2.4-8.2-2.4c-2.5,0-4.7,0.7-6.6,2.2c-2,1.5-3.4,3.5-4.2,6.2c-1.2,4-1.9,8.4-1.9,13.1v34.8H2177z"/>
			<path class="st3" d="M2215.6,1264.1c0-12.3,3.4-21.4,10.2-27.3c5.7-4.9,12.7-7.4,20.9-7.4c9.1,0,16.6,3,22.4,9
				c5.8,6,8.7,14.2,8.7,24.8c0,8.5-1.3,15.3-3.8,20.2c-2.6,4.9-6.3,8.7-11.2,11.4c-4.9,2.7-10.2,4.1-16,4.1c-9.3,0-16.8-3-22.5-8.9
				C2218.5,1283.9,2215.6,1275.3,2215.6,1264.1z M2227.2,1264.1c0,8.5,1.9,14.9,5.6,19.1c3.7,4.2,8.4,6.3,14,6.3
				c5.6,0,10.2-2.1,13.9-6.4c3.7-4.2,5.6-10.7,5.6-19.4c0-8.2-1.9-14.4-5.6-18.7c-3.7-4.2-8.4-6.3-13.9-6.3c-5.6,0-10.3,2.1-14,6.3
				C2229,1249.3,2227.2,1255.6,2227.2,1264.1z"/>
			<path class="st3" d="M2286.5,1277.5l11.1-1.8c0.6,4.5,2.4,7.9,5.2,10.2c2.9,2.4,6.8,3.6,12,3.6c5.2,0,9-1.1,11.5-3.2
				c2.5-2.1,3.8-4.6,3.8-7.4c0-2.5-1.1-4.5-3.3-6c-1.5-1-5.4-2.3-11.5-3.8c-8.2-2.1-14-3.9-17.2-5.4c-3.2-1.5-5.6-3.6-7.2-6.3
				c-1.6-2.7-2.5-5.7-2.5-8.9c0-3,0.7-5.7,2-8.2c1.4-2.5,3.2-4.6,5.5-6.3c1.8-1.3,4.1-2.4,7.2-3.3c3-0.9,6.3-1.3,9.7-1.3
				c5.2,0,9.8,0.8,13.7,2.2s6.8,3.5,8.7,6.1c1.9,2.6,3.2,6,3.9,10.3l-11,1.5c-0.5-3.4-1.9-6.1-4.3-8c-2.4-1.9-5.8-2.9-10.2-2.9
				c-5.2,0-8.9,0.9-11.1,2.6c-2.2,1.7-3.3,3.7-3.3,6c0,1.5,0.5,2.8,1.4,3.9c0.9,1.2,2.4,2.2,4.3,3c1.1,0.4,4.4,1.4,9.9,2.9
				c8,2.1,13.5,3.9,16.7,5.2c3.1,1.4,5.6,3.3,7.4,5.9c1.8,2.6,2.7,5.8,2.7,9.6c0,3.8-1.1,7.3-3.3,10.6s-5.3,5.9-9.5,7.7
				s-8.8,2.7-14,2.7c-8.6,0-15.2-1.8-19.7-5.4C2290.6,1289.9,2287.7,1284.5,2286.5,1277.5z"/>
			<path class="st3" d="M2350.8,1264.1c0-12.3,3.4-21.4,10.2-27.3c5.7-4.9,12.7-7.4,20.9-7.4c9.1,0,16.6,3,22.4,9
				c5.8,6,8.7,14.2,8.7,24.8c0,8.5-1.3,15.3-3.8,20.2c-2.6,4.9-6.3,8.7-11.2,11.4s-10.2,4.1-16,4.1c-9.3,0-16.8-3-22.5-8.9
				C2353.7,1283.9,2350.8,1275.3,2350.8,1264.1z M2362.3,1264.1c0,8.5,1.9,14.9,5.6,19.1c3.7,4.2,8.4,6.3,14,6.3
				c5.6,0,10.2-2.1,13.9-6.4s5.6-10.7,5.6-19.4c0-8.2-1.9-14.4-5.6-18.7c-3.7-4.2-8.4-6.3-13.9-6.3c-5.6,0-10.3,2.1-14,6.3
				C2364.2,1249.3,2362.3,1255.6,2362.3,1264.1z"/>
			<path class="st3" d="M2428.8,1297.3v-57.6h-9.9v-8.8h9.9v-7.1c0-4.5,0.4-7.8,1.2-9.9c1.1-2.9,3-5.3,5.7-7.1s6.6-2.7,11.5-2.7
				c3.2,0,6.7,0.4,10.5,1.1l-1.7,9.8c-2.3-0.4-4.5-0.6-6.6-0.6c-3.4,0-5.8,0.7-7.2,2.2c-1.4,1.5-2.1,4.2-2.1,8.2v6.1h12.9v8.8H2440
				v57.6H2428.8z"/>
			<path class="st3" d="M2486.3,1287.2l1.6,9.9c-3.2,0.7-6,1-8.5,1c-4.1,0-7.2-0.6-9.5-1.9s-3.8-3-4.8-5.1
				c-0.9-2.1-1.4-6.5-1.4-13.3v-38.2h-8.2v-8.8h8.2v-16.4l11.2-6.8v23.2h11.3v8.8H2475v38.8c0,3.2,0.2,5.3,0.6,6.2
				c0.4,0.9,1,1.6,1.9,2.2c0.9,0.5,2.2,0.8,3.8,0.8C2482.6,1287.7,2484.2,1287.5,2486.3,1287.2z"/>
			<path class="st3" d="M2534.5,1297.3v-91.6h66.2v10.8h-54.1v28.1h50.7v10.8h-50.7v31.2h56.2v10.8H2534.5z"/>
			<path class="st3" d="M2610.7,1297.3l24.2-34.5l-22.4-31.9h14.1l10.2,15.6c1.9,3,3.5,5.4,4.6,7.4c1.8-2.8,3.5-5.2,5.1-7.3
				l11.2-15.7h13.4l-22.9,31.2l24.7,35.1H2659l-13.6-20.6l-3.6-5.6l-17.4,26.2H2610.7z"/>
			<path class="st3" d="M2725.5,1273l11.1,1.4c-1.2,7.6-4.3,13.6-9.3,17.9s-11.1,6.5-18.3,6.5c-9.1,0-16.4-3-21.9-8.9
				s-8.3-14.4-8.3-25.5c0-7.2,1.2-13.4,3.6-18.8s6-9.4,10.8-12.1s10.1-4,15.8-4c7.2,0,13.1,1.8,17.7,5.5c4.6,3.6,7.5,8.8,8.8,15.5
				l-10.9,1.7c-1-4.5-2.9-7.8-5.5-10.1s-5.8-3.4-9.6-3.4c-5.7,0-10.3,2-13.8,6.1s-5.3,10.5-5.3,19.3c0,8.9,1.7,15.4,5.1,19.4
				c3.4,4,7.9,6.1,13.4,6.1c4.4,0,8.1-1.4,11.1-4.1C2722.9,1282.8,2724.7,1278.6,2725.5,1273z"/>
			<path class="st3" d="M2791.7,1275.9l11.6,1.4c-1.8,6.8-5.2,12.1-10.2,15.8s-11.3,5.6-19,5.6c-9.7,0-17.4-3-23.1-9
				c-5.7-6-8.5-14.4-8.5-25.2c0-11.2,2.9-19.8,8.6-26c5.8-6.2,13.2-9.2,22.4-9.2c8.9,0,16.1,3,21.8,9.1c5.6,6,8.4,14.5,8.4,25.5
				c0,0.7,0,1.7-0.1,3h-49.5c0.4,7.3,2.5,12.9,6.2,16.8s8.3,5.8,13.9,5.8c4.1,0,7.6-1.1,10.6-3.2
				C2787.6,1284.1,2790,1280.7,2791.7,1275.9z M2754.7,1257.7h37.1c-0.5-5.6-1.9-9.8-4.2-12.6c-3.6-4.3-8.2-6.5-13.9-6.5
				c-5.2,0-9.5,1.7-13,5.2C2757,1247.3,2755.1,1252,2754.7,1257.7z"/>
			<path class="st3" d="M2817.2,1297.3v-91.6h11.2v91.6H2817.2z"/>
			<path class="st3" d="M1895.4,1417.7c0-12.3,3.4-21.4,10.2-27.3c5.7-4.9,12.7-7.4,20.9-7.4c9.1,0,16.6,3,22.4,9
				c5.8,6,8.7,14.2,8.7,24.8c0,8.5-1.3,15.3-3.8,20.2c-2.6,4.9-6.3,8.7-11.2,11.4c-4.9,2.7-10.2,4.1-16,4.1c-9.3,0-16.8-3-22.5-8.9
				C1898.3,1437.5,1895.4,1428.9,1895.4,1417.7z M1907,1417.7c0,8.5,1.9,14.9,5.6,19.1c3.7,4.2,8.4,6.3,14,6.3
				c5.6,0,10.2-2.1,13.9-6.4c3.7-4.2,5.6-10.7,5.6-19.4c0-8.2-1.9-14.4-5.6-18.7c-3.7-4.2-8.4-6.3-13.9-6.3c-5.6,0-10.3,2.1-14,6.3
				C1908.8,1402.9,1907,1409.2,1907,1417.7z"/>
			<path class="st3" d="M2050.7,1415v-10.8l38.8-0.1v34c-6,4.8-12.1,8.3-18.4,10.7c-6.3,2.4-12.8,3.6-19.5,3.6
				c-9,0-17.2-1.9-24.5-5.8c-7.4-3.9-12.9-9.4-16.7-16.7c-3.8-7.3-5.6-15.4-5.6-24.4c0-8.9,1.9-17.2,5.6-25
				c3.7-7.7,9.1-13.5,16.1-17.2s15.1-5.6,24.2-5.6c6.6,0,12.6,1.1,18,3.2c5.4,2.1,9.6,5.1,12.6,9c3,3.8,5.4,8.8,6.9,15l-10.9,3
				c-1.4-4.7-3.1-8.3-5.1-11c-2-2.7-5-4.8-8.8-6.4c-3.8-1.6-8-2.4-12.6-2.4c-5.5,0-10.3,0.8-14.4,2.5c-4,1.7-7.3,3.9-9.8,6.7
				c-2.5,2.8-4.4,5.8-5.8,9.1c-2.3,5.7-3.5,11.8-3.5,18.4c0,8.2,1.4,15,4.2,20.5s6.9,9.6,12.3,12.2c5.4,2.7,11.1,4,17.1,4
				c5.2,0,10.4-1,15.4-3c5-2,8.8-4.2,11.4-6.5V1415H2050.7z"/>
			<path class="st3" d="M2101.7,1417.7c0-12.3,3.4-21.4,10.2-27.3c5.7-4.9,12.7-7.4,20.9-7.4c9.1,0,16.6,3,22.4,9
				c5.8,6,8.7,14.2,8.7,24.8c0,8.5-1.3,15.3-3.8,20.2c-2.6,4.9-6.3,8.7-11.2,11.4c-4.9,2.7-10.2,4.1-16,4.1c-9.3,0-16.8-3-22.5-8.9
				C2104.6,1437.5,2101.7,1428.9,2101.7,1417.7z M2113.3,1417.7c0,8.5,1.9,14.9,5.6,19.1c3.7,4.2,8.4,6.3,14,6.3
				c5.6,0,10.2-2.1,13.9-6.4c3.7-4.2,5.6-10.7,5.6-19.4c0-8.2-1.9-14.4-5.6-18.7c-3.7-4.2-8.4-6.3-13.9-6.3c-5.6,0-10.3,2.1-14,6.3
				C2115.1,1402.9,2113.3,1409.2,2113.3,1417.7z"/>
			<path class="st3" d="M2172.9,1417.7c0-12.3,3.4-21.4,10.2-27.3c5.7-4.9,12.7-7.4,20.9-7.4c9.1,0,16.6,3,22.4,9
				c5.8,6,8.7,14.2,8.7,24.8c0,8.5-1.3,15.3-3.8,20.2c-2.6,4.9-6.3,8.7-11.2,11.4c-4.9,2.7-10.2,4.1-16,4.1c-9.3,0-16.8-3-22.5-8.9
				C2175.8,1437.5,2172.9,1428.9,2172.9,1417.7z M2184.5,1417.7c0,8.5,1.9,14.9,5.6,19.1c3.7,4.2,8.4,6.3,14,6.3
				c5.6,0,10.2-2.1,13.9-6.4c3.7-4.2,5.6-10.7,5.6-19.4c0-8.2-1.9-14.4-5.6-18.7c-3.7-4.2-8.4-6.3-13.9-6.3c-5.6,0-10.3,2.1-14,6.3
				C2186.3,1402.9,2184.5,1409.2,2184.5,1417.7z"/>
			<path class="st3" d="M2246.2,1456.4l10.9,1.6c0.5,3.4,1.7,5.8,3.8,7.4c2.8,2.1,6.6,3.1,11.4,3.1c5.2,0,9.2-1,12.1-3.1
				c2.8-2.1,4.8-5,5.8-8.8c0.6-2.3,0.9-7.1,0.8-14.4c-4.9,5.8-11,8.7-18.4,8.7c-9.1,0-16.2-3.3-21.2-9.9c-5-6.6-7.5-14.5-7.5-23.7
				c0-6.3,1.1-12.2,3.4-17.5c2.3-5.4,5.6-9.5,10-12.4c4.4-2.9,9.5-4.4,15.3-4.4c7.8,0,14.3,3.2,19.4,9.5v-8h10.4v57.4
				c0,10.3-1.1,17.7-3.2,22c-2.1,4.3-5.4,7.7-10,10.2s-10.2,3.8-16.8,3.8c-7.9,0-14.3-1.8-19.2-5.3S2246.1,1463.6,2246.2,1456.4z
				 M2255.5,1416.5c0,8.7,1.7,15.1,5.2,19.1c3.5,4,7.8,6,13,6c5.2,0,9.5-2,13-6c3.5-4,5.2-10.2,5.2-18.7c0-8.1-1.8-14.2-5.4-18.4
				c-3.6-4.1-7.9-6.2-13-6.2c-5,0-9.2,2-12.8,6.1S2255.5,1408.5,2255.5,1416.5z"/>
			<path class="st3" d="M2319.2,1450.9v-91.6h11.2v91.6H2319.2z"/>
			<path class="st3" d="M2393.3,1429.5l11.6,1.4c-1.8,6.8-5.2,12.1-10.2,15.8s-11.3,5.6-19,5.6c-9.7,0-17.4-3-23.1-9
				c-5.7-6-8.5-14.4-8.5-25.2c0-11.2,2.9-19.8,8.6-26c5.8-6.2,13.2-9.2,22.4-9.2c8.9,0,16.1,3,21.8,9.1c5.6,6,8.4,14.5,8.4,25.5
				c0,0.7,0,1.7-0.1,3h-49.5c0.4,7.3,2.5,12.9,6.2,16.8s8.3,5.8,13.9,5.8c4.1,0,7.6-1.1,10.6-3.2
				C2389.3,1437.7,2391.6,1434.3,2393.3,1429.5z M2356.4,1411.3h37.1c-0.5-5.6-1.9-9.8-4.2-12.6c-3.6-4.3-8.2-6.5-13.9-6.5
				c-5.2,0-9.5,1.7-13,5.2C2358.7,1400.9,2356.8,1405.6,2356.4,1411.3z"/>
			<path class="st3" d="M2452,1421.5l11.4-1c0.5,4.6,1.8,8.3,3.8,11.3s5.1,5.3,9.2,7.1s8.9,2.7,14.1,2.7c4.6,0,8.7-0.7,12.2-2.1
				s6.2-3.3,7.9-5.7c1.7-2.4,2.6-5,2.6-7.8c0-2.9-0.8-5.4-2.5-7.5c-1.7-2.1-4.4-3.9-8.2-5.4c-2.5-1-7.9-2.4-16.3-4.5
				c-8.4-2-14.3-3.9-17.7-5.7c-4.4-2.3-7.6-5.1-9.8-8.5c-2.1-3.4-3.2-7.2-3.2-11.4c0-4.6,1.3-8.9,3.9-13c2.6-4,6.5-7.1,11.5-9.2
				c5-2.1,10.6-3.1,16.8-3.1c6.8,0,12.8,1.1,18,3.3s9.2,5.4,12,9.7s4.3,9.1,4.5,14.4l-11.6,0.9c-0.6-5.8-2.7-10.2-6.3-13.1
				c-3.6-3-8.9-4.4-16-4.4c-7.3,0-12.7,1.3-16,4s-5,5.9-5,9.7c0,3.3,1.2,6,3.6,8.1c2.3,2.1,8.4,4.3,18.3,6.5
				c9.9,2.2,16.6,4.2,20.3,5.8c5.3,2.5,9.3,5.6,11.8,9.3c2.5,3.8,3.8,8.1,3.8,13c0,4.9-1.4,9.5-4.2,13.8s-6.8,7.7-12,10.1
				s-11.1,3.6-17.7,3.6c-8.3,0-15.2-1.2-20.8-3.6s-10-6.1-13.2-10.9C2453.8,1433.1,2452.1,1427.6,2452,1421.5z"/>
			<path class="st3" d="M2540,1450.9v-91.6h11.2v32.9c5.2-6.1,11.9-9.1,19.9-9.1c4.9,0,9.2,1,12.8,2.9s6.2,4.6,7.8,8
				c1.6,3.4,2.3,8.4,2.3,14.9v42.1h-11.2v-42.1c0-5.6-1.2-9.7-3.7-12.3s-5.9-3.8-10.3-3.8c-3.3,0-6.5,0.9-9.4,2.6
				c-2.9,1.7-5,4.1-6.3,7c-1.2,3-1.9,7-1.9,12.2v36.3H2540z"/>
			<path class="st3" d="M2656.7,1429.5l11.6,1.4c-1.8,6.8-5.2,12.1-10.2,15.8s-11.3,5.6-19,5.6c-9.7,0-17.4-3-23.1-9
				c-5.7-6-8.5-14.4-8.5-25.2c0-11.2,2.9-19.8,8.6-26c5.8-6.2,13.2-9.2,22.4-9.2c8.9,0,16.1,3,21.8,9.1c5.6,6,8.4,14.5,8.4,25.5
				c0,0.7,0,1.7-0.1,3h-49.5c0.4,7.3,2.5,12.9,6.2,16.8s8.3,5.8,13.9,5.8c4.1,0,7.6-1.1,10.6-3.2
				C2652.6,1437.7,2655,1434.3,2656.7,1429.5z M2619.7,1411.3h37.1c-0.5-5.6-1.9-9.8-4.2-12.6c-3.6-4.3-8.2-6.5-13.9-6.5
				c-5.2,0-9.5,1.7-13,5.2C2622,1400.9,2620.1,1405.6,2619.7,1411.3z"/>
			<path class="st3" d="M2727.8,1429.5l11.6,1.4c-1.8,6.8-5.2,12.1-10.2,15.8s-11.3,5.6-19,5.6c-9.7,0-17.4-3-23.1-9
				c-5.7-6-8.5-14.4-8.5-25.2c0-11.2,2.9-19.8,8.6-26c5.8-6.2,13.2-9.2,22.4-9.2c8.9,0,16.1,3,21.8,9.1c5.6,6,8.4,14.5,8.4,25.5
				c0,0.7,0,1.7-0.1,3h-49.5c0.4,7.3,2.5,12.9,6.2,16.8s8.3,5.8,13.9,5.8c4.1,0,7.6-1.1,10.6-3.2
				C2723.8,1437.7,2726.1,1434.3,2727.8,1429.5z M2690.9,1411.3h37.1c-0.5-5.6-1.9-9.8-4.2-12.6c-3.6-4.3-8.2-6.5-13.9-6.5
				c-5.2,0-9.5,1.7-13,5.2C2693.2,1400.9,2691.3,1405.6,2690.9,1411.3z"/>
			<path class="st3" d="M2778.2,1440.8l1.6,9.9c-3.2,0.7-6,1-8.5,1c-4.1,0-7.2-0.6-9.5-1.9s-3.8-3-4.8-5.1
				c-0.9-2.1-1.4-6.5-1.4-13.3v-38.2h-8.2v-8.8h8.2v-16.4l11.2-6.8v23.2h11.3v8.8h-11.3v38.8c0,3.2,0.2,5.3,0.6,6.2
				c0.4,0.9,1,1.6,1.9,2.2c0.9,0.5,2.2,0.8,3.8,0.8C2774.5,1441.3,2776.1,1441.1,2778.2,1440.8z"/>
		</g>
		<path class="st5" d="M3008.5,1028.3c0-57.9,46.9-104.8,104.8-104.8h1011.3c57.9,0,104.8,46.9,104.8,104.8v419.3
			c0,57.9-46.9,104.8-104.8,104.8H3113.3c-57.9,0-104.8-46.9-104.8-104.8V1028.3z"/>
		<g class="st2">
			<path class="st3" d="M3318.7,1133l36.6-95.2h13.6l39,95.2h-14.4l-11.1-28.8h-39.8l-10.5,28.8H3318.7z M3346.2,1093.9h32.3
				l-9.9-26.4c-3-8-5.3-14.6-6.8-19.7c-1.2,6.1-2.9,12.2-5.1,18.2L3346.2,1093.9z"/>
			<path class="st3" d="M3414.2,1138.7l11.4,1.7c0.5,3.5,1.8,6.1,4,7.7c2.9,2.2,6.9,3.2,11.9,3.2c5.4,0,9.6-1.1,12.5-3.2
				c2.9-2.2,4.9-5.2,6-9.1c0.6-2.4,0.9-7.4,0.8-15c-5.1,6-11.5,9-19.1,9c-9.5,0-16.8-3.4-22-10.3c-5.2-6.8-7.8-15-7.8-24.6
				c0-6.6,1.2-12.7,3.6-18.2c2.4-5.6,5.8-9.9,10.4-12.9c4.5-3,9.8-4.5,15.9-4.5c8.1,0,14.8,3.3,20.1,9.9v-8.3h10.8v59.6
				c0,10.7-1.1,18.3-3.3,22.8c-2.2,4.5-5.7,8-10.4,10.6c-4.7,2.6-10.6,3.9-17.5,3.9c-8.2,0-14.9-1.9-19.9-5.6
				C3416.5,1151.7,3414.1,1146.2,3414.2,1138.7z M3423.9,1097.3c0,9,1.8,15.7,5.4,19.8c3.6,4.2,8.1,6.2,13.5,6.2
				c5.4,0,9.9-2.1,13.5-6.2c3.6-4.1,5.5-10.6,5.5-19.5c0-8.4-1.9-14.8-5.6-19.1c-3.7-4.3-8.3-6.4-13.5-6.4c-5.2,0-9.6,2.1-13.2,6.3
				C3425.7,1082.7,3423.9,1089,3423.9,1097.3z"/>
			<path class="st3" d="M3488.2,1138.7l11.4,1.7c0.5,3.5,1.8,6.1,4,7.7c2.9,2.2,6.9,3.2,11.9,3.2c5.4,0,9.6-1.1,12.5-3.2
				c2.9-2.2,4.9-5.2,6-9.1c0.6-2.4,0.9-7.4,0.8-15c-5.1,6-11.5,9-19.1,9c-9.5,0-16.8-3.4-22-10.3c-5.2-6.8-7.8-15-7.8-24.6
				c0-6.6,1.2-12.7,3.6-18.2c2.4-5.6,5.8-9.9,10.4-12.9c4.5-3,9.8-4.5,15.9-4.5c8.1,0,14.8,3.3,20.1,9.9v-8.3h10.8v59.6
				c0,10.7-1.1,18.3-3.3,22.8c-2.2,4.5-5.7,8-10.4,10.6c-4.7,2.6-10.6,3.9-17.5,3.9c-8.2,0-14.9-1.9-19.9-5.6
				C3490.5,1151.7,3488,1146.2,3488.2,1138.7z M3497.9,1097.3c0,9,1.8,15.7,5.4,19.8c3.6,4.2,8.1,6.2,13.5,6.2
				c5.4,0,9.9-2.1,13.5-6.2c3.6-4.1,5.5-10.6,5.5-19.5c0-8.4-1.9-14.8-5.6-19.1c-3.7-4.3-8.3-6.4-13.5-6.4c-5.2,0-9.6,2.1-13.2,6.3
				C3499.7,1082.7,3497.9,1089,3497.9,1097.3z"/>
			<path class="st3" d="M3564.4,1051.2v-13.4h11.7v13.4H3564.4z M3564.4,1133v-69h11.7v69H3564.4z"/>
			<path class="st3" d="M3639.1,1133v-10.1c-5.4,7.8-12.7,11.7-21.9,11.7c-4.1,0-7.9-0.8-11.4-2.3s-6.1-3.5-7.9-5.9
				c-1.7-2.4-2.9-5.2-3.6-8.7c-0.5-2.3-0.7-5.9-0.7-10.9V1064h11.7v38.3c0,6.1,0.2,10.2,0.7,12.3c0.7,3.1,2.3,5.5,4.7,7.2
				c2.4,1.8,5.3,2.6,8.8,2.6c3.5,0,6.8-0.9,9.9-2.7c3.1-1.8,5.2-4.2,6.5-7.3c1.3-3.1,1.9-7.6,1.9-13.5v-37h11.7v69H3639.1z"/>
			<path class="st3" d="M3667.8,1133v-69h10.5v9.8c5.1-7.6,12.4-11.4,22-11.4c4.2,0,8,0.7,11.5,2.2c3.5,1.5,6.1,3.5,7.8,5.9
				s2.9,5.3,3.6,8.6c0.4,2.2,0.7,6,0.7,11.4v42.4h-11.7v-42c0-4.8-0.5-8.3-1.4-10.7c-0.9-2.4-2.5-4.2-4.8-5.7
				c-2.3-1.4-5-2.1-8.2-2.1c-5,0-9.3,1.6-12.9,4.7s-5.4,9.2-5.4,18v37.7H3667.8z"/>
			<path class="st3" d="M3739.7,1138.7l11.4,1.7c0.5,3.5,1.8,6.1,4,7.7c2.9,2.2,6.9,3.2,11.9,3.2c5.4,0,9.6-1.1,12.5-3.2
				c2.9-2.2,4.9-5.2,6-9.1c0.6-2.4,0.9-7.4,0.8-15c-5.1,6-11.5,9-19.1,9c-9.5,0-16.8-3.4-22-10.3c-5.2-6.8-7.8-15-7.8-24.6
				c0-6.6,1.2-12.7,3.6-18.2c2.4-5.6,5.8-9.9,10.4-12.9c4.5-3,9.8-4.5,15.9-4.5c8.1,0,14.8,3.3,20.1,9.9v-8.3h10.8v59.6
				c0,10.7-1.1,18.3-3.3,22.8c-2.2,4.5-5.7,8-10.4,10.6c-4.7,2.6-10.6,3.9-17.5,3.9c-8.2,0-14.9-1.9-19.9-5.6
				C3741.9,1151.7,3739.5,1146.2,3739.7,1138.7z M3749.3,1097.3c0,9,1.8,15.7,5.4,19.8c3.6,4.2,8.1,6.2,13.5,6.2
				c5.4,0,9.9-2.1,13.5-6.2c3.6-4.1,5.5-10.6,5.5-19.5c0-8.4-1.9-14.8-5.6-19.1c-3.7-4.3-8.3-6.4-13.5-6.4c-5.2,0-9.6,2.1-13.2,6.3
				C3751.2,1082.7,3749.3,1089,3749.3,1097.3z"/>
			<path class="st3" d="M3815.8,1051.2v-13.4h11.7v13.4H3815.8z M3815.8,1133v-69h11.7v69H3815.8z"/>
			<path class="st3" d="M3882.3,1051.2v-13.4h11.7v13.4H3882.3z M3882.3,1133v-69h11.7v69H3882.3z"/>
			<path class="st3" d="M3911.6,1133v-95.2h11.7v95.2H3911.6z"/>
			<path class="st3" d="M3216.5,1292.6h-10.8v-95.2h11.7v34c4.9-6.2,11.2-9.3,18.9-9.3c4.2,0,8.3,0.9,12,2.6
				c3.8,1.7,6.9,4.1,9.4,7.2c2.4,3.1,4.4,6.8,5.7,11.2c1.4,4.4,2.1,9,2.1,14c0,11.8-2.9,21-8.8,27.4c-5.8,6.5-12.9,9.7-21,9.7
				c-8.1,0-14.5-3.4-19.2-10.2V1292.6z M3216.4,1257.6c0,8.3,1.1,14.2,3.4,17.9c3.7,6,8.7,9,14.9,9c5.1,0,9.5-2.2,13.2-6.7
				c3.7-4.4,5.6-11.1,5.6-19.8c0-9-1.8-15.7-5.4-19.9c-3.6-4.3-7.9-6.4-13-6.4c-5.1,0-9.5,2.2-13.2,6.7
				C3218.2,1242.8,3216.4,1249.2,3216.4,1257.6z"/>
			<path class="st3" d="M3279.4,1292.6v-95.2h11.7v95.2H3279.4z"/>
			<path class="st3" d="M3304.9,1258.1c0-12.8,3.5-22.2,10.7-28.4c5.9-5.1,13.2-7.7,21.7-7.7c9.5,0,17.2,3.1,23.2,9.3
				c6,6.2,9,14.8,9,25.7c0,8.9-1.3,15.9-4,20.9c-2.7,5.1-6.5,9-11.6,11.9c-5.1,2.8-10.6,4.2-16.7,4.2c-9.7,0-17.5-3.1-23.4-9.3
				C3307.9,1278.7,3304.9,1269.8,3304.9,1258.1z M3316.9,1258.1c0,8.8,1.9,15.4,5.8,19.8c3.9,4.4,8.7,6.6,14.5,6.6
				c5.8,0,10.6-2.2,14.5-6.6s5.8-11.1,5.8-20.2c0-8.5-1.9-15-5.8-19.4c-3.9-4.4-8.7-6.6-14.4-6.6c-5.8,0-10.7,2.2-14.5,6.6
				C3318.8,1242.7,3316.9,1249.3,3316.9,1258.1z"/>
			<path class="st3" d="M3428.2,1267.3l11.5,1.5c-1.3,7.9-4.5,14.1-9.6,18.6c-5.2,4.5-11.5,6.7-19.1,6.7c-9.4,0-17-3.1-22.8-9.3
				c-5.7-6.2-8.6-15-8.6-26.5c0-7.4,1.2-14,3.7-19.5c2.5-5.6,6.2-9.8,11.3-12.6c5-2.8,10.5-4.2,16.5-4.2c7.5,0,13.6,1.9,18.4,5.7
				c4.8,3.8,7.8,9.2,9.2,16.1l-11.4,1.8c-1.1-4.6-3-8.1-5.7-10.5c-2.8-2.3-6.1-3.5-10-3.5c-5.9,0-10.7,2.1-14.4,6.3
				c-3.7,4.2-5.5,10.9-5.5,20c0,9.3,1.8,16,5.3,20.2s8.2,6.3,13.9,6.3c4.6,0,8.4-1.4,11.5-4.2S3427.4,1273.2,3428.2,1267.3z"/>
			<path class="st3" d="M3494.7,1267.3l11.5,1.5c-1.3,7.9-4.5,14.1-9.6,18.6c-5.2,4.5-11.5,6.7-19.1,6.7c-9.4,0-17-3.1-22.8-9.3
				c-5.7-6.2-8.6-15-8.6-26.5c0-7.4,1.2-14,3.7-19.5c2.5-5.6,6.2-9.8,11.3-12.6c5-2.8,10.5-4.2,16.5-4.2c7.5,0,13.6,1.9,18.4,5.7
				c4.8,3.8,7.8,9.2,9.2,16.1l-11.4,1.8c-1.1-4.6-3-8.1-5.7-10.5c-2.8-2.3-6.1-3.5-10-3.5c-5.9,0-10.7,2.1-14.4,6.3
				c-3.7,4.2-5.5,10.9-5.5,20c0,9.3,1.8,16,5.3,20.2c3.5,4.2,8.2,6.3,13.9,6.3c4.6,0,8.4-1.4,11.5-4.2
				C3491.9,1277.5,3493.9,1273.2,3494.7,1267.3z"/>
			<path class="st3" d="M3511.8,1258.1c0-12.8,3.6-22.2,10.7-28.4c5.9-5.1,13.2-7.7,21.7-7.7c9.5,0,17.2,3.1,23.2,9.3
				c6,6.2,9,14.8,9,25.7c0,8.9-1.3,15.9-4,20.9c-2.7,5.1-6.5,9-11.6,11.9c-5.1,2.8-10.6,4.2-16.7,4.2c-9.7,0-17.5-3.1-23.4-9.3
				C3514.8,1278.7,3511.8,1269.8,3511.8,1258.1z M3523.9,1258.1c0,8.8,1.9,15.4,5.8,19.8c3.9,4.4,8.7,6.6,14.5,6.6
				c5.8,0,10.6-2.2,14.5-6.6s5.8-11.1,5.8-20.2c0-8.5-1.9-15-5.8-19.4c-3.9-4.4-8.7-6.6-14.4-6.6c-5.8,0-10.7,2.2-14.5,6.6
				C3525.8,1242.7,3523.9,1249.3,3523.9,1258.1z"/>
			<path class="st3" d="M3628.2,1292.6v-95.2h19l22.5,67.4c2.1,6.3,3.6,11,4.5,14.1c1.1-3.5,2.8-8.5,5.1-15.3l22.8-66.2h16.9v95.2
				h-12.1v-79.7l-27.7,79.7h-11.4l-27.5-81v81H3628.2z"/>
			<path class="st3" d="M3733.6,1258.1c0-12.8,3.5-22.2,10.7-28.4c5.9-5.1,13.2-7.7,21.7-7.7c9.5,0,17.2,3.1,23.2,9.3
				c6,6.2,9,14.8,9,25.7c0,8.9-1.3,15.9-4,20.9c-2.7,5.1-6.5,9-11.6,11.9c-5.1,2.8-10.6,4.2-16.7,4.2c-9.7,0-17.5-3.1-23.4-9.3
				C3736.5,1278.7,3733.6,1269.8,3733.6,1258.1z M3745.6,1258.1c0,8.8,1.9,15.4,5.8,19.8c3.9,4.4,8.7,6.6,14.5,6.6
				c5.8,0,10.6-2.2,14.5-6.6s5.8-11.1,5.8-20.2c0-8.5-1.9-15-5.8-19.4c-3.9-4.4-8.7-6.6-14.4-6.6c-5.8,0-10.7,2.2-14.5,6.6
				C3747.5,1242.7,3745.6,1249.3,3745.6,1258.1z"/>
			<path class="st3" d="M3856.6,1292.6v-8.7c-4.4,6.8-10.8,10.3-19.3,10.3c-5.5,0-10.6-1.5-15.2-4.5s-8.2-7.3-10.7-12.7
				c-2.5-5.4-3.8-11.7-3.8-18.7c0-6.9,1.1-13.1,3.4-18.7c2.3-5.6,5.7-9.9,10.3-12.9c4.6-3,9.7-4.5,15.4-4.5c4.2,0,7.9,0.9,11.1,2.6
				c3.2,1.8,5.9,4,7.9,6.9v-34.2h11.6v95.2H3856.6z M3819.7,1258.2c0,8.8,1.9,15.4,5.6,19.8c3.7,4.4,8.1,6.6,13.2,6.6
				c5.1,0,9.4-2.1,13-6.3c3.6-4.2,5.4-10.6,5.4-19.1c0-9.4-1.8-16.4-5.5-20.8s-8.1-6.6-13.4-6.6c-5.2,0-9.5,2.1-13,6.4
				C3821.4,1242.4,3819.7,1249,3819.7,1258.2z"/>
			<path class="st3" d="M3931,1292.6v-10.1c-5.4,7.8-12.7,11.7-21.9,11.7c-4.1,0-7.9-0.8-11.4-2.3s-6.1-3.5-7.9-5.9
				c-1.7-2.4-2.9-5.2-3.6-8.7c-0.5-2.3-0.7-5.9-0.7-10.9v-42.7h11.7v38.3c0,6.1,0.2,10.2,0.7,12.3c0.7,3.1,2.3,5.5,4.7,7.2
				c2.4,1.8,5.3,2.6,8.8,2.6c3.5,0,6.8-0.9,9.9-2.7c3.1-1.8,5.2-4.2,6.5-7.3c1.3-3.1,1.9-7.6,1.9-13.5v-37h11.7v69H3931z"/>
			<path class="st3" d="M3959.6,1292.6v-95.2h11.7v95.2H3959.6z"/>
			<path class="st3" d="M3985,1258.1c0-12.8,3.6-22.2,10.7-28.4c5.9-5.1,13.2-7.7,21.7-7.7c9.5,0,17.2,3.1,23.2,9.3
				c6,6.2,9,14.8,9,25.7c0,8.9-1.3,15.9-4,20.9c-2.7,5.1-6.5,9-11.6,11.9c-5.1,2.8-10.6,4.2-16.7,4.2c-9.7,0-17.5-3.1-23.4-9.3
				C3988,1278.7,3985,1269.8,3985,1258.1z M3997,1258.1c0,8.8,1.9,15.4,5.8,19.8c3.9,4.4,8.7,6.6,14.5,6.6c5.8,0,10.6-2.2,14.5-6.6
				s5.8-11.1,5.8-20.2c0-8.5-1.9-15-5.8-19.4c-3.9-4.4-8.7-6.6-14.4-6.6c-5.8,0-10.7,2.2-14.5,6.6
				C3999,1242.7,3997,1249.3,3997,1258.1z"/>
			<path class="st3" d="M3210.1,1443.7c-4.3,3.7-8.5,6.3-12.5,7.8c-4,1.5-8.3,2.3-12.9,2.3c-7.6,0-13.4-1.9-17.5-5.6
				c-4.1-3.7-6.1-8.4-6.1-14.2c0-3.4,0.8-6.5,2.3-9.3c1.5-2.8,3.5-5,6-6.7c2.5-1.7,5.3-3,8.4-3.8c2.3-0.6,5.8-1.2,10.4-1.8
				c9.4-1.1,16.4-2.5,20.8-4c0-1.6,0.1-2.6,0.1-3.1c0-4.8-1.1-8.1-3.3-10.1c-3-2.6-7.4-4-13.3-4c-5.5,0-9.6,1-12.2,2.9
				c-2.6,1.9-4.6,5.3-5.8,10.2l-11.4-1.6c1-4.9,2.7-8.8,5.1-11.9c2.4-3,5.8-5.3,10.3-6.9c4.5-1.6,9.7-2.4,15.7-2.4
				c5.9,0,10.7,0.7,14.4,2.1c3.7,1.4,6.4,3.1,8.1,5.2c1.7,2.1,2.9,4.8,3.6,8c0.4,2,0.6,5.6,0.6,10.8v15.6c0,10.9,0.2,17.7,0.7,20.6
				c0.5,2.9,1.5,5.6,3,8.3h-12.2C3211.2,1449.8,3210.4,1446.9,3210.1,1443.7z M3209.1,1417.6c-4.2,1.7-10.6,3.2-19.1,4.4
				c-4.8,0.7-8.2,1.5-10.2,2.3s-3.5,2.1-4.6,3.8c-1.1,1.7-1.6,3.5-1.6,5.6c0,3.1,1.2,5.7,3.5,7.8s5.8,3.1,10.4,3.1c4.5,0,8.5-1,12-3
				c3.5-2,6.1-4.7,7.7-8.1c1.3-2.6,1.9-6.5,1.9-11.7V1417.6z"/>
			<path class="st3" d="M3238.8,1452.2V1357h11.7v95.2H3238.8z"/>
			<path class="st3" d="M3305.5,1478.6v-95.4h10.7v9c2.5-3.5,5.3-6.1,8.5-7.9c3.2-1.8,7-2.6,11.5-2.6c5.9,0,11.1,1.5,15.6,4.5
				c4.5,3,7.9,7.3,10.2,12.8c2.3,5.5,3.4,11.6,3.4,18.2c0,7.1-1.3,13.4-3.8,19.1c-2.5,5.7-6.2,10-11,13c-4.8,3-9.9,4.5-15.2,4.5
				c-3.9,0-7.4-0.8-10.5-2.5s-5.6-3.7-7.6-6.2v33.6H3305.5z M3316.1,1418.1c0,8.9,1.8,15.4,5.4,19.7c3.6,4.2,7.9,6.4,13.1,6.4
				c5.2,0,9.6-2.2,13.3-6.6c3.7-4.4,5.6-11.2,5.6-20.4c0-8.8-1.8-15.4-5.4-19.7c-3.6-4.4-7.9-6.6-13-6.6c-5,0-9.4,2.3-13.2,7
				C3318,1402.5,3316.1,1409.2,3316.1,1418.1z"/>
			<path class="st3" d="M3379.4,1452.2v-69h10.5v10.5c2.7-4.9,5.2-8.1,7.4-9.7s4.8-2.3,7.5-2.3c3.9,0,7.9,1.3,12,3.8l-4,10.8
				c-2.9-1.7-5.7-2.5-8.6-2.5c-2.6,0-4.8,0.8-6.9,2.3c-2,1.5-3.5,3.7-4.4,6.4c-1.3,4.2-1.9,8.7-1.9,13.6v36.1H3379.4z"/>
			<path class="st3" d="M3419.4,1417.7c0-12.8,3.5-22.2,10.7-28.4c5.9-5.1,13.2-7.7,21.7-7.7c9.5,0,17.2,3.1,23.2,9.3
				c6,6.2,9,14.8,9,25.7c0,8.9-1.3,15.9-4,20.9c-2.7,5.1-6.5,9-11.6,11.9c-5.1,2.8-10.6,4.2-16.7,4.2c-9.7,0-17.5-3.1-23.4-9.3
				C3422.4,1438.3,3419.4,1429.4,3419.4,1417.7z M3431.5,1417.7c0,8.8,1.9,15.4,5.8,19.8c3.9,4.4,8.7,6.6,14.5,6.6
				c5.8,0,10.6-2.2,14.5-6.6s5.8-11.1,5.8-20.2c0-8.5-1.9-15-5.8-19.4c-3.9-4.4-8.7-6.6-14.4-6.6c-5.8,0-10.7,2.2-14.5,6.6
				C3433.4,1402.3,3431.5,1408.9,3431.5,1417.7z"/>
			<path class="st3" d="M3495.6,1457.9l11.4,1.7c0.5,3.5,1.8,6.1,4,7.7c2.9,2.2,6.9,3.2,11.9,3.2c5.4,0,9.6-1.1,12.5-3.2
				c2.9-2.2,4.9-5.2,6-9.1c0.6-2.4,0.9-7.4,0.8-15c-5.1,6-11.5,9-19.1,9c-9.5,0-16.8-3.4-22-10.3c-5.2-6.8-7.8-15-7.8-24.6
				c0-6.6,1.2-12.7,3.6-18.2c2.4-5.6,5.8-9.9,10.4-12.9c4.5-3,9.8-4.5,15.9-4.5c8.1,0,14.8,3.3,20.1,9.9v-8.3h10.8v59.6
				c0,10.7-1.1,18.3-3.3,22.8c-2.2,4.5-5.7,8-10.4,10.6c-4.7,2.6-10.6,3.9-17.5,3.9c-8.2,0-14.9-1.9-19.9-5.6
				C3497.9,1470.9,3495.4,1465.4,3495.6,1457.9z M3505.3,1416.5c0,9,1.8,15.7,5.4,19.8c3.6,4.2,8.1,6.2,13.5,6.2
				c5.4,0,9.9-2.1,13.5-6.2c3.6-4.1,5.5-10.6,5.5-19.5c0-8.4-1.9-14.8-5.6-19.1c-3.7-4.3-8.3-6.4-13.5-6.4c-5.2,0-9.6,2.1-13.2,6.3
				C3507.1,1401.9,3505.3,1408.2,3505.3,1416.5z"/>
			<path class="st3" d="M3618.9,1430l12.1,1.5c-1.9,7.1-5.4,12.5-10.6,16.4s-11.7,5.8-19.7,5.8c-10.1,0-18.1-3.1-24-9.3
				c-5.9-6.2-8.9-14.9-8.9-26.1c0-11.6,3-20.6,9-27c6-6.4,13.7-9.6,23.2-9.6c9.2,0,16.8,3.1,22.6,9.4c5.8,6.3,8.8,15.1,8.8,26.5
				c0,0.7,0,1.7-0.1,3.1h-51.4c0.4,7.6,2.6,13.4,6.4,17.4c3.9,4,8.7,6,14.4,6c4.3,0,7.9-1.1,11-3.4
				C3614.8,1438.5,3617.2,1434.9,3618.9,1430z M3580.6,1411.1h38.5c-0.5-5.8-2-10.2-4.4-13.1c-3.7-4.5-8.6-6.8-14.5-6.8
				c-5.4,0-9.9,1.8-13.5,5.4C3583,1400.3,3580.9,1405.1,3580.6,1411.1z"/>
			<path class="st3" d="M3671.2,1441.7l1.7,10.3c-3.3,0.7-6.2,1-8.8,1c-4.2,0-7.5-0.7-9.9-2c-2.3-1.3-4-3.1-4.9-5.3
				c-1-2.2-1.4-6.8-1.4-13.8v-39.7h-8.6v-9.1h8.6v-17.1l11.6-7v24.1h11.8v9.1h-11.8v40.3c0,3.3,0.2,5.5,0.6,6.4c0.4,1,1.1,1.7,2,2.3
				c0.9,0.6,2.3,0.8,4,0.8C3667.4,1442.2,3669.1,1442,3671.2,1441.7z"/>
			<path class="st3" d="M3708.2,1441.7l1.7,10.3c-3.3,0.7-6.2,1-8.8,1c-4.2,0-7.5-0.7-9.9-2c-2.3-1.3-4-3.1-4.9-5.3
				c-1-2.2-1.4-6.8-1.4-13.8v-39.7h-8.6v-9.1h8.6v-17.1l11.6-7v24.1h11.8v9.1h-11.8v40.3c0,3.3,0.2,5.5,0.6,6.4c0.4,1,1.1,1.7,2,2.3
				c0.9,0.6,2.3,0.8,4,0.8C3704.3,1442.2,3706,1442,3708.2,1441.7z"/>
			<path class="st3" d="M3715.2,1417.7c0-12.8,3.6-22.2,10.7-28.4c5.9-5.1,13.2-7.7,21.7-7.7c9.5,0,17.2,3.1,23.2,9.3
				c6,6.2,9,14.8,9,25.7c0,8.9-1.3,15.9-4,20.9c-2.7,5.1-6.5,9-11.6,11.9c-5.1,2.8-10.6,4.2-16.7,4.2c-9.7,0-17.5-3.1-23.4-9.3
				C3718.2,1438.3,3715.2,1429.4,3715.2,1417.7z M3727.3,1417.7c0,8.8,1.9,15.4,5.8,19.8c3.9,4.4,8.7,6.6,14.5,6.6
				c5.8,0,10.6-2.2,14.5-6.6s5.8-11.1,5.8-20.2c0-8.5-1.9-15-5.8-19.4c-3.9-4.4-8.7-6.6-14.4-6.6c-5.8,0-10.7,2.2-14.5,6.6
				C3729.2,1402.3,3727.3,1408.9,3727.3,1417.7z"/>
			<path class="st3" d="M3832.3,1452.2V1357h68.8v11.2h-56.2v29.2h52.7v11.2h-52.7v32.4h58.4v11.2H3832.3z"/>
			<path class="st3" d="M3920.7,1452.2V1357h32.8c7.4,0,13.1,0.5,16.9,1.4c5.5,1.3,10.1,3.5,14,6.8c5,4.2,8.8,9.7,11.3,16.3
				c2.5,6.6,3.7,14.1,3.7,22.6c0,7.2-0.8,13.6-2.5,19.2c-1.7,5.6-3.9,10.2-6.5,13.9c-2.6,3.7-5.5,6.5-8.7,8.6
				c-3.1,2.1-6.9,3.7-11.4,4.8c-4.4,1.1-9.5,1.6-15.3,1.6H3920.7z M3933.3,1441h20.3c6.3,0,11.2-0.6,14.8-1.8
				c3.6-1.2,6.4-2.8,8.5-4.9c3-3,5.3-7,7-12c1.7-5,2.5-11.2,2.5-18.3c0-10-1.6-17.6-4.9-23c-3.3-5.3-7.2-8.9-11.9-10.7
				c-3.4-1.3-8.8-1.9-16.3-1.9h-20V1441z"/>
			<path class="st3" d="M4012.5,1421.6l11.9-1c0.6,4.8,1.9,8.7,3.9,11.7c2.1,3.1,5.2,5.5,9.6,7.4c4.3,1.9,9.2,2.8,14.6,2.8
				c4.8,0,9-0.7,12.7-2.1s6.4-3.4,8.2-5.9c1.8-2.5,2.7-5.2,2.7-8.2c0-3-0.9-5.6-2.6-7.8c-1.7-2.2-4.6-4.1-8.6-5.6
				c-2.6-1-8.2-2.5-16.9-4.6c-8.7-2.1-14.9-4.1-18.4-5.9c-4.5-2.4-7.9-5.3-10.2-8.9c-2.2-3.5-3.3-7.5-3.3-11.9
				c0-4.8,1.4-9.3,4.1-13.5c2.7-4.2,6.7-7.3,11.9-9.5s11.1-3.2,17.5-3.2c7.1,0,13.3,1.1,18.7,3.4c5.4,2.3,9.5,5.6,12.4,10
				s4.5,9.4,4.7,15l-12.1,0.9c-0.6-6-2.8-10.6-6.6-13.6c-3.7-3.1-9.3-4.6-16.6-4.6c-7.6,0-13.2,1.4-16.7,4.2
				c-3.5,2.8-5.2,6.2-5.2,10.1c0,3.4,1.2,6.2,3.7,8.4c2.4,2.2,8.8,4.5,19,6.8c10.2,2.3,17.3,4.3,21.1,6.1c5.5,2.6,9.6,5.8,12.3,9.7
				c2.6,3.9,4,8.4,4,13.5c0,5.1-1.5,9.8-4.4,14.3c-2.9,4.5-7.1,8-12.5,10.5c-5.4,2.5-11.6,3.7-18.3,3.7c-8.6,0-15.8-1.3-21.7-3.8
				c-5.8-2.5-10.4-6.3-13.7-11.3C4014.4,1433.7,4012.7,1428,4012.5,1421.6z"/>
		</g>
	</g>
</g>
</svg>
